<?xml version="1.0" encoding="utf-8"?>
<!-- Generator: Adobe Illustrator 23.0.2, SVG Export Plug-In . SVG Version: 6.00 Build 0)  -->
<svg version="1.1" id="Layer_1" xmlns="http://www.w3.org/2000/svg" xmlns:xlink="http://www.w3.org/1999/xlink" x="0px" y="0px"
	 viewBox="0 0 1303.6 274.6" style="enable-background:new 0 0 1303.6 274.6;" xml:space="preserve">
<style type="text/css">
	.st0{fill:#303C42;}
</style>
<g>
	<path class="st0" d="M136.6,93.6l-7.5,30.1c8.5,2.1,34.7,10.8,39-6.2C172.5,99.7,145.1,95.7,136.6,93.6z"/>
	<path class="st0" d="M170.5,4.1c-73.5-18.3-148,26.4-166.3,100c-18.3,73.5,26.4,148,99.9,166.3c73.6,18.3,148-26.4,166.4-99.9
		C288.8,96.9,244,22.4,170.5,4.1z M197.8,117.7c-2,13.4-9.4,19.8-19.2,22.1c13.5,7,20.4,17.8,13.8,36.5
		c-8.1,23.2-27.4,25.2-53.1,20.3l-6.2,25l-15.1-3.8l6.1-24.6c-3.9-1-7.9-2-12-3.1l-6.2,24.8l-15-3.8l6.2-25
		c-3.5-0.9-7.1-1.9-10.7-2.8l-19.6-4.9l7.5-17.2c0,0,11.1,2.9,10.9,2.7c4.3,1.1,6.2-1.7,6.9-3.6l9.9-39.5c0.6,0.1,1.1,0.3,1.6,0.4
		c-0.6-0.2-1.1-0.4-1.6-0.5l7-28.2c0.2-3.2-0.9-7.2-7-8.8c0.2-0.2-10.9-2.7-10.9-2.7l4-16.1l20.8,5.2l0,0.1c3.1,0.8,6.3,1.5,9.6,2.3
		l6.2-24.7l15.1,3.8l-6,24.3c4,0.9,8.1,1.9,12.1,2.8l6-24.1l15.1,3.8L167.6,83C186.6,89.6,200.5,99.4,197.8,117.7z"/>
	<path class="st0" d="M1294.2,107.2c-10.3-15.7-28.9-23.5-55.9-23.5c-9.2,0-17.5,0.4-24.7,1.2c-7.3,0.8-13.9,1.8-19.7,3.1
		c-5.9,1.2-11.2,2.6-15.9,4.1c-4.7,1.5-9.1,2.9-12.9,4l-41.9,173.6h51.5l33.6-140.7c6.9-1.4,13.7-2.1,20.4-2.1c6.9,0,12,1.3,15.4,4
		c3.3,2.7,5.5,6.2,6.4,10.4c1,4.3,1,9.2,0.2,14.9c-0.8,5.7-1.9,11.5-3.3,17.5l-22.8,96.1h51.5l23.5-98.2
		C1306.3,144.4,1304.5,122.9,1294.2,107.2z"/>
	<polygon class="st0" points="1076.6,87.9 1033.4,269.8 1084.6,269.8 1128.2,87.9 	"/>
	<path class="st0" d="M1090.2,59.3c5.7,4.3,12.2,6.4,19.3,6.4c4.9,0,9.4-0.9,13.7-2.8c4.3-1.8,8-4.3,11.2-7.4
		c3.2-3.1,5.8-6.8,7.8-11.1c1.9-4.3,3-8.8,3-13.7c0-8.7-2.9-15.3-8.7-19.5c-5.8-4.3-12.2-6.4-19.4-6.4c-4.8,0-9.4,0.9-13.6,2.8
		c-4.2,1.9-8,4.3-11.2,7.4c-3.2,3.1-5.8,6.8-7.8,11.1c-2,4.3-2.9,8.8-2.9,13.6C1081.5,48.6,1084.4,55.1,1090.2,59.3z"/>
	<path class="st0" d="M520.6,59.3c5.7,4.3,12.2,6.4,19.4,6.4c4.8,0,9.4-0.9,13.7-2.8c4.2-1.8,8-4.3,11.2-7.4
		c3.2-3.1,5.8-6.8,7.8-11.1c2-4.3,2.9-8.8,2.9-13.7c0-8.7-2.9-15.3-8.6-19.5c-5.8-4.3-12.2-6.4-19.3-6.4c-4.9,0-9.4,0.9-13.7,2.8
		c-4.3,1.9-8,4.3-11.2,7.4c-3.2,3.1-5.8,6.8-7.8,11.1C513,30.4,512,35,512,39.8C512,48.6,514.9,55.1,520.6,59.3z"/>
	<path class="st0" d="M125.3,138.8L117,172c10.2,2.5,41.7,12.7,46.4-6.1C168.2,146.4,135.5,141.4,125.3,138.8z"/>
	<path class="st0" d="M808.1,126.6c7.2,0,13.2,0.7,18.2,2.3c5,1.5,9.7,3.1,14.4,5l17.7-40.1c-6.7-3.2-14.1-5.8-22.3-7.8
		c-8.2-2-17.4-3-27.8-3c-16.6,0-31.7,3-45.1,9c-13.5,6-25,14.2-34.4,24.5c-9.5,10.4-16.7,22.5-21.8,36.3
		c-5.1,13.8-7.6,28.6-7.6,44.3c0,10.4,1.5,20.3,4.3,29.7c2.9,9.5,7.5,17.7,14,24.7c6.5,7,14.6,12.6,24.5,16.8
		c9.9,4.1,22,6.2,36.3,6.2c10.8,0,20.2-1,28-2.9c7.8-2,15-4.3,21.4-6.8l-3.8-41.1c-4.9,2.1-10.4,3.8-16.6,5.2
		c-6.2,1.4-12.7,2.1-19.4,2.1c-13.6,0-22.9-3.6-28-10.9c-5.1-7.3-7.6-16.8-7.6-28.5c0-19.8,5-35.6,15.1-47.4
		C777.5,132.5,791,126.6,808.1,126.6z"/>
	<path class="st0" d="M1011.1,104.1c-5.9-6.7-13.4-11.9-22.5-15.6c-9.1-3.7-19.7-5.6-31.7-5.6c-16.3,0-30.9,3.5-43.5,10.5
		c-12.7,7.1-23.4,16.1-32.1,27.2c-8.8,11.1-15.4,23.5-19.9,37.3c-4.5,13.8-6.7,27.7-6.7,41.5c0,11,1.5,21.1,4.5,30.2
		c3,9.1,7.4,17,13.3,23.7c5.9,6.7,13.3,11.9,22.3,15.6c9,3.7,19.6,5.5,31.8,5.5c16.8,0,31.7-3.5,44.4-10.6c12.8-7,23.5-16.1,32-27.1
		c8.5-11.1,15-23.5,19.4-37.3c4.4-13.9,6.6-27.7,6.6-41.5c0-11.1-1.5-21.2-4.5-30.2C1021.4,118.7,1016.9,110.8,1011.1,104.1z
		 M974.8,185.9c-2,8-4.9,15.3-8.8,22c-3.9,6.7-8.8,12.2-14.5,16.6c-5.8,4.4-12.4,6.6-20.1,6.6c-9.7,0-16.4-3.2-20.1-9.7
		c-3.7-6.5-5.5-15.5-5.5-27c0-7.2,1-14.7,2.9-22.6c2-7.9,4.9-15.3,8.8-22c3.9-6.7,8.7-12.2,14.5-16.6c5.7-4.4,12.4-6.6,20-6.6
		c9.7,0,16.4,3.2,20.1,9.7c3.7,6.5,5.6,15.5,5.6,27C977.7,170.4,976.7,178,974.8,185.9z"/>
	<path class="st0" d="M618.8,193.7l15.2-63.6H691l10.4-42.2H644l13.2-53.6l-53.6,8.3l-33.9,143.2c-2.8,11.8-4.4,22.9-4.8,33.5
		c-0.5,10.6,1.2,20,4.8,28.2c3.7,8.2,9.9,14.7,18.7,19.4c8.8,4.7,21.1,7.1,37,7.1c11.1,0,20.6-0.9,28.7-2.8c8.1-1.8,15.6-4,22.5-6.6
		l-3.8-39.4c-5.3,1.9-10.5,3.3-15.7,4.3c-5.2,1-10.6,1.6-16.1,1.6c-6.7,0-11.8-0.9-15.4-2.8c-3.6-1.8-6.1-4.4-7.4-7.8
		c-1.4-3.3-2-7.3-1.7-11.9C616.6,203.9,617.4,199,618.8,193.7z"/>
	<polygon class="st0" points="463.9,269.8 515.1,269.8 558.7,87.9 507.1,87.9 	"/>
	<path class="st0" d="M444,105.8c-5.4-6.7-12-12-20.1-15.9c-8-3.9-17.6-5.9-28.7-5.9c-5.3,0-10.2,0.6-14.9,1.7
		c-4.6,1.2-9.2,2.8-13.8,4.8l21.4-89.2l-53.6,8.3l-59.8,251.4c6.7,3.2,13.8,5.8,21.3,7.6c7.5,1.9,14.6,3.2,21.3,4.2
		c6.7,0.9,12.6,1.4,17.8,1.5c5.2,0.1,8.8,0.2,10.9,0.2c16.1,0,31.1-3.1,44.9-9.2c13.8-6.1,25.8-14.4,36-24.9
		c10.2-10.5,18.2-22.8,24-37c5.9-14.2,8.8-29.2,8.8-45.1c0-10.4-1.3-20-3.8-29C453.2,120.4,449.3,112.5,444,105.8z M403.9,188.1
		c-3,8.3-7.1,15.7-12.3,22.3c-5.2,6.6-11.4,11.8-18.5,15.7c-7.1,3.9-14.7,5.9-22.8,5.9c-2.5,0-4.6,0-6.2,0c-1.6,0-3-0.1-4.2-0.2
		c-1.1-0.1-2.2-0.3-3.3-0.5c-1-0.2-2.3-0.4-3.6-0.7l22.8-94.7c4.2-3.7,8.8-6.1,14-7.3c5.2-1.1,9.4-1.7,12.6-1.7
		c9.9,0,16.7,3.1,20.4,9.3c3.7,6.2,5.5,14.9,5.5,25.9C408.4,171.2,406.9,179.8,403.9,188.1z"/>
</g>
</svg>
