<svg t="1593483094798" class="icon" viewBox="0 0 1024 1024" version="1.1" xmlns="http://www.w3.org/2000/svg" p-id="2276" width="16" height="16">
	<path d="M173.85639 444.382475v-3.04812c12.101493-51.499587 9.098867-106.047294 21.20036-160.640496 18.197734-109.186404 90.98867-209.27394 193.987844-254.768275s227.471674-30.344721 312.22762 39.398094c72.790936 60.598454 112.143535 157.592376 121.242402 251.583671a83.163644 83.163644 0 0 1-3.04812 27.296601c-3.002626 9.098867-12.101493 15.195108-18.197734 21.245854l-260.637045 209.273941c-9.098867 9.098867-21.245854 18.197734-33.347347 18.197734-18.197734 3.002626-36.395468-9.098867-54.593202-18.197734-39.398094-27.296601-81.889803-51.545081-121.242402-78.796188-12.101493-9.098867-27.296601-18.197734-42.40072-12.146988-3.04812 0-3.04812 3.04812 0 3.048121l196.99047 227.471674c9.098867 9.098867 18.197734 18.197734 30.344721 18.197734 9.098867 0 15.149613-6.096241 21.20036-12.146988l287.933645-284.931019h2.866143c54.593202 118.285271 112.143535 245.669408 109.186404 375.874195a18.197734 18.197734 0 0 1-3.048121 12.101493c-6.050747 6.096241-15.149613 0-21.20036-6.050747l-69.742815-66.694695a2.957132 2.957132 0 0 0-3.002626 3.048121 299.398217 299.398217 0 0 1-90.98867 187.937097v3.002626c18.197734 3.04812 39.398094 9.098867 54.593202 21.245854s27.296601 36.395468 21.20036 54.593202a2.957132 2.957132 0 0 1-3.002626 3.048121H204.155617c-6.050747 0-18.197734 3.002626-21.20036-6.096241 0-6.050747 6.050747-15.149613 9.098867-21.20036a80.888927 80.888927 0 0 1 15.149613-18.197734 107.548608 107.548608 0 0 1 39.398094-24.248481s15.149613-3.002626 18.197734-3.002626a2.957132 2.957132 0 0 0 3.002626-3.04812c0-27.296601-21.20036-45.494335-39.398093-66.694695a256.81552 256.81552 0 0 1-45.494335-90.98867c0-18.197734-6.096241-36.395468-18.197734-39.398094h-3.048121a320.007151 320.007151 0 0 1-51.454092 78.659705c-6.096241 6.050747-12.146987 9.098867-18.197734 6.050747a11.100618 11.100618 0 0 1-3.048121-9.098867 533.512064 533.512064 0 0 1 30.344722-239.436684c18.197734-48.496961 42.40072-93.991296 54.593201-142.488257z" fill="#0BB2FF" p-id="2277">
	</path>
</svg>
